<mxfile host="app.diagrams.net" agent="Mozilla/5.0 (Windows NT 10.0; Win64; x64) AppleWebKit/537.36 (KHTML, like Gecko) Chrome/131.0.0.0 Safari/537.36" version="26.0.5">
  <diagram name="Page-1" id="D42r1pAtCRayBHKRjpiW">
    <mxGraphModel dx="794" dy="466" grid="1" gridSize="10" guides="1" tooltips="1" connect="1" arrows="1" fold="1" page="1" pageScale="1" pageWidth="827" pageHeight="1169" math="0" shadow="0">
      <root>
        <mxCell id="0" />
        <mxCell id="1" parent="0" />
        <mxCell id="nWRwTz6iJhRm_jSJGZRl-3" value="" style="edgeStyle=orthogonalEdgeStyle;rounded=0;orthogonalLoop=1;jettySize=auto;html=1;" edge="1" parent="1" source="nWRwTz6iJhRm_jSJGZRl-1" target="nWRwTz6iJhRm_jSJGZRl-2">
          <mxGeometry relative="1" as="geometry" />
        </mxCell>
        <mxCell id="nWRwTz6iJhRm_jSJGZRl-1" value="Start" style="ellipse;whiteSpace=wrap;html=1;" vertex="1" parent="1">
          <mxGeometry x="230" y="70" width="120" height="80" as="geometry" />
        </mxCell>
        <mxCell id="nWRwTz6iJhRm_jSJGZRl-2" value="num bumber" style="whiteSpace=wrap;html=1;" vertex="1" parent="1">
          <mxGeometry x="230" y="240" width="120" height="60" as="geometry" />
        </mxCell>
      </root>
    </mxGraphModel>
  </diagram>
</mxfile>
